<?xml version="1.0" encoding="UTF-8"?>
<svg width="15px" height="21px" viewBox="0 0 15 21" version="1.1" xmlns="http://www.w3.org/2000/svg" xmlns:xlink="http://www.w3.org/1999/xlink">
    <title>Shape Copy</title>
    <g id="Page-1" stroke="none" stroke-width="1" fill="none" fill-rule="evenodd">
        <path d="M7.24,0 C3.23984136,0.00551746544 3.55271368e-15,3.24983756 3.55271368e-15,7.25 C3.55271368e-15,11.25 7.24,20.18 7.24,20.18 C7.24,20.18 14.49,11.25 14.49,7.25 C14.49,3.24593556 11.2440644,0 7.24,0 Z M7.24,10.64 C5.39536894,10.64 3.9,9.14463106 3.9,7.3 C3.9,5.45536894 5.39536894,3.96 7.24,3.96 C9.08463106,3.96 10.58,5.45536894 10.58,7.3 C10.58,8.18582308 10.2281082,9.03536515 9.60173665,9.66173665 C8.97536515,10.2881082 8.12582308,10.64 7.24,10.64 L7.24,10.64 Z" id="Shape-Copy" fill="#6D7278" fill-rule="nonzero"></path>
    </g>
</svg>